<?xml version="1.0" encoding="UTF-8"?>
<svg enable-background="new 0 0 330 330" version="1.1" viewBox="0 0 330 330" xml:space="preserve" xmlns="http://www.w3.org/2000/svg">
<style type="text/css">
	.st0{fill:none;}
	.st1{fill:none;stroke:#FFFFFF;stroke-width:44;stroke-linejoin:round;}
</style>
<path class="st0" d="m-80-80"/>
<path class="st0" d="m-80-80"/>
<path class="st1" d="m45 165c0-66.3 53.7-120 120-120m120 120c0-66.3-53.7-120-120-120m-120 120c0 66.3 53.7 120 120 120s120-53.7 120-120m-120-120v-45m90 90l45-30m-15 105h45m-165 120v45m-165-165h45m0 120l30-30m210 30l-30-30m-180-180l-30-30"/>
</svg>
