<?xml version="1.0" encoding="utf-8"?>
<!-- Generator: Adobe Illustrator 21.1.0, SVG Export Plug-In . SVG Version: 6.00 Build 0)  -->
<svg version="1.1" id="Layer_1" xmlns="http://www.w3.org/2000/svg" xmlns:xlink="http://www.w3.org/1999/xlink" x="0px" y="0px"
	 viewBox="0 0 344 344" style="enable-background:new 0 0 344 344;" xml:space="preserve">
<style type="text/css">
	.st0{fill:none;}
	.st1{fill:#FFFFFF;stroke:#FFFFFF;stroke-width:44;stroke-linecap:square;stroke-linejoin:round;}
</style>
<path class="st0" d="M-103-43"/>
<path class="st0" d="M-103-43"/>
<path class="st1" d="M22,22L22,22v240 M262,262L262,262H22 M262,22L262,22v240 M262,22L262,22H22 M82,82L82,82v240l0,0h240V82H82
	v240l0,0V82h240v240H82 M322,322L322,322H82 M322,82L322,82v240 M82,82L82,82h240 M112,292L112,292h180V112H112V292 M52,52L52,52
	v180h165l15-180H52"/>
</svg>
