<?xml version="1.0" encoding="utf-8"?>
<!-- Generator: Adobe Illustrator 21.1.0, SVG Export Plug-In . SVG Version: 6.00 Build 0)  -->
<svg version="1.1" id="Layer_1" xmlns="http://www.w3.org/2000/svg" xmlns:xlink="http://www.w3.org/1999/xlink" x="0px" y="0px"
	 viewBox="0 0 430 554" style="enable-background:new 0 0 430 554;" xml:space="preserve">
<style type="text/css">
	.st0{display:none;fill:#FFFFFF;}
	.st1{fill:#FFFFFF;}
</style>
<g>
	<path class="st0" d="M276,1c2.3,0,4.7,0,7,0c4.3,6.2,9.2,12.1,12.9,18.6c4.4,7.9,5.3,8.9,14.2,8.2c2.8-0.2,5.9,0,8.3-1.1
		c5.5-2.5,11.6-3.5,16.1-8.9C339.8,11.5,346.8,6.6,353,1c1,0,2,0,3,0c8.2,6.6,8.8,15.2,6.4,24.7c-1.5,6.1-2.7,12.3-4,18.5
		c-0.2,1.1-0.2,2.3-0.2,3.5c-0.1,6.8-0.8,13.7,3.7,19.8c1.1,1.6,0.7,4.6,0.4,6.8c-0.7,4.1-1.9,8.1-2.7,12.1
		c-0.5,2.7-1.7,5.9-0.7,8.1c2.8,6.5,6.7,12.5,9.8,18.9c1.1,2.3,2.5,5.6,1.7,7.4c-3.1,7-7.2,13.7-11.3,21.3c0.9,2.4,2.2,6.3,4,10
		c1.8,3.5,4.2,6.7,6.8,10.7c-2.6,0.2-4.4,0.3-6.3,0.4c7.6,11.6,11.2,24.7,10.7,34.5c-0.5,7.6-0.1,15.2,0.2,22.8
		c0.4,8.4,1.4,16.8,1.5,25.2c0.1,4.6-1.9,9.2-1.8,13.7c0.3,24.1,0.9,48.2,1.5,72.4c0.1,5.6,0.4,11.3,1.1,16.9
		c2.8,25.9,11,50.2,21.6,73.8c6.8,15.1,11.1,30.5,8,47.3c-1,5.5-1.2,11.3-1.2,16.9c0,2,1.1,4.5,2.5,6c2.7,2.6,6.4,4.1,8.9,6.8
		c4.6,4.8,11.4,7.9,13,15.2c0.5,2.4,1,4.8,1.5,7.2c0,1.3,0,2.7,0,4c-0.3,1.5-0.5,3.1-0.9,4.6c-0.8,3.5-1.7,7-2.5,10.5
		c-0.6-0.1-1.1-0.1-1.7-0.2c-1-3.1-2-6.2-3-9.3c-0.2,0.1-0.4,0.1-0.6,0.2c-0.2,3-0.3,6-0.5,8.6c-4.6-3.7-8.9-7.2-13.6-11
		c-1,2.9-1.6,4.6-2.4,6.7c-2.4-3.1-4.4-5.6-6.9-8.9c-0.5,7.5,3.9,14.3-1.9,20.3c-1.5-2.7-2.8-4.9-4.1-7.2c-0.3,0.1-0.5,0.3-0.8,0.4
		c0.3,2.4,0.5,4.9,0.8,7.3c-0.3,0-0.7,0-1,0c-7-2.9-14-5.9-21.2-8.9c-0.5,1.9-0.8,3.3-1.3,5.4c-5-3.3-9.3-7.4-15.7-7
		c-1.1,0.1-3.2-2.9-3.6-4.8c-0.8-3.8-1.3-7.8-1.1-11.7c0.5-8.9,1.8-17.9,2.1-26.8c0.2-4.4-0.2-9.1-1.8-13.1
		c-1.3-3.2-4.1-6.7-7.2-8.2c-6-3.1-12.7-5.1-19.2-7.2c-9.9-3.3-19.9-6.5-29.9-9.4c-3.9-1.1-8.1-1.4-12.2-1.8
		c-2.4-0.2-4.9-0.3-7.3,0.1c-5.5,1-11.1,3.5-16.5,3.1c-4.6-0.3-7.4,0.8-10.1,4.1c0.8,0.8,1.6,1.7,2.5,2.3
		c11.4,6.4,23.4,11.2,36.8,10.9c6.7-0.1,13.4-0.4,18.9,4.3c0.6,0.5,1.6,0.5,2.4,0.6c5.5,0.6,8.8,3.3,10.2,8.4
		c1.1,4.1,2.5,8.1,3.3,12.3c0.6,3.2,0.5,6.6,0.8,11.2c-2.8-1.9-4.2-2.8-5.9-4c-0.1,1.5,0.1,3.1-0.5,4c-0.7,1-2.9,2.3-3.4,1.9
		c-4.8-3.7-8.3-2.5-10.4,1.6c-7.5-4-14.4-8.2-21.7-11.7c-6.3-3-12.9-5.3-19.5-7.5c-6.1-2-12.4-4.3-18.7-5.1
		c-12.5-1.6-25.1-2.3-37.6-3.1c-5.5-0.4-12.8-4.7-14.2-8.9c-0.8,0-1.7,0.2-2.5,0c-2.3-0.6-5.8-0.9-6.4-2.3c-0.7-1.9,0.9-4.7,1.5-7.1
		c0.5-2.1,0.9-4.3,1-5c-3.6-2.1-6.4-3.3-8.4-5.4c-0.5-0.5,2.2-3.9,3.7-6.6c-1.6-0.3-3.7-1-5.8-1.1c-4.7-0.4-9.4-0.6-12.2-5.3
		c-0.3-0.5-0.9-1.1-1.4-1.1c-8.2-0.4-14.9-4-21-9.2c-2.5-2.1-5.1-4.3-7.4-6.6c-3.3-3.3-6.7-6.7-9.7-10.3c-2.6-3.2-6.6-6.8-6.4-10.1
		c0.2-4.4-2-6.8-3.5-9.9c-1-1.9-1.8-4-2.9-5.8c-2.3-3.7-3.4-6.9,2.7-7.8c-4.6-6.3-8.9-12.1-13.1-18c0.4-0.5,0.8-1.1,1.3-1.6
		c3,0.2,6,0.4,9.1,0.5c-0.5-1.3-2.1-3.5-1.6-4.2c3.5-4.9-0.4-9.1-1.1-13.4c-0.9-5.7-2.5-11.3-4.6-16.7c-1.8-4.8-2.1-4.9,4.3-5.3
		c-2.4-4.7-4.5-9.1-6.7-13.5c-1.5-2.9-3.7-5.6-4.8-8.7c-1.7-4.7-0.9-9.2,2.7-12.9c2.4-2.5,4.9-1.5,4.9,1.4
		c-0.2,10.5,10.2,13.8,14,21.5c-4.8-12.4-10.1-24.5-23-32.5c3-1.3,4.9-2,6.9-2.9c-0.5-0.4-0.9-1-1.5-1.2c-5.6-1.8-11.4-3.4-16.9-5.3
		c-1.8-0.6-3.4-2.1-5.1-3.1c1.7-1.2,3.2-2.7,5.1-3.4c1.7-0.7,3.7-0.5,5.5-0.7c0.1-0.6,0.3-1.1,0.4-1.7c-5.6-2.7-11.3-5.1-16.7-8.1
		c-2.2-1.2-3.8-3.4-5.7-5.2c2.2-1,4.5-3,6.7-2.9c4.7,0.3,9.3,1.7,13.9,2.6c-5.4-3.4-11.3-5.7-17.1-8.2c-1.5-0.7-2.8-1.9-4.3-2.8
		c1.4-1.3,2.5-3.1,4.1-3.6c2.4-0.8,5.1-0.8,9-1.3c-11.4-6.2-19.4-14.5-26.1-24.1c-0.5-0.7-1.6-1.2-2.5-1.1
		c-4.3,0.2-8.6,0.5-12.8,1.1c-3,0.4-6.4,1.9-7.8-1.8c-1.4-3.6,1.4-6,4.4-7.2c4.2-1.7,8.6-2.8,12.8-4.2c-1-5.7-5.5-7.4-10.4-7.8
		c-5.6-0.4-11.3,0-16.9,0.2c-2.7,0.1-5.4,0.5-9,0.8c4.3-9.6,13.3-9.8,20.3-13.7c-2.9-1.2-5.9-2.4-8.8-2.5C13.9,173.8,7.4,174,1,174
		c0-0.7,0-1.3,0-2c1.3-1.7,2.4-3.6,4-5c11.2-9.8,23.7-11.8,37.6-6.5c3.3,1.3,6.9,2.4,10.4,2.7c13.5,1.1,25.1,6.1,34.3,16.2
		c0.6,0.7,1.5,1.5,2.3,1.6c10.3,1.5,16.6,8.5,22.4,16.2c2.6,3.4,3.9,8,6.9,10.8c6.6,6.2,11.3,13.4,14.6,21.7
		c0.5,1.3,1.4,2.8,2.5,3.5c5.9,3.4,8.5,8.7,9,15.2c0.3,5.6,0.2,11.1,0.6,16.7c0.4,5.9,2.5,11.9-2.8,16.9c-0.3,0.3-0.1,1.2-0.1,1.8
		c-0.2,4.1-0.7,8.3-0.7,12.4c0,2,0.4,4.4,1.6,5.9c5.8,8,9.1,17.3,7,26.7c-2.1,9,1.8,17.3,0.8,26c1.1-2.7,2.2-5.5,3.7-9.3
		c6,7.5,3.4,16.4,8.5,23.3c4.7,6.4,6.4,15,14.1,18.9c0.7-6.5,2.6-12.9,1.7-19c-1.1-7.9,0.7-14.7,3.9-21.1c-1.5-0.7-3.7-1.2-3.9-2.1
		c-0.3-1.3,0.6-3.1,1.5-4.4c3.3-5,7.5-9.5,10-14.8c4.1-8.3,7.3-17.1,10.6-25.8c2-5.4,3.8-10.8,5.1-16.4c0.8-3.7-0.1-7.8,0.9-11.4
		c2.3-8.1,1.4-16.1-0.2-24.1c-0.5-2.2-0.2-5.6-1.6-6.5c-4-2.7-2.7-6.2-2.2-9.4c0.5-3.3,1.9-6.5,2.8-9.7c-1.5-0.5-3-1-5-1.8
		c1.5-2.3,2.6-4.1,3.7-5.9c6.5-10.7,13-21.5,19.5-32.2c0.6-0.9,0.7-2.2,0.9-3.3c1.3-8.4,2.6-16.8,3.9-24.6c-1.3-0.5-3.3-1.4-5.3-2.3
		c1.2-1.9,2.2-3.9,3.7-5.6c3-3.3,6.4-6.2,9.3-9.5c1.2-1.3,2.8-4.1,2.3-4.6c-3.2-3.9,0.5-5,2.4-6.6c2-1.9,4.4-3.4,6.3-4.9
		c-3.4-2.7-6.6-5.1-10-7.7c10.5-6.5,15.5-15.2,15.8-25.8c-2.4-0.9-4.4-1.2-5.7-2.3c-0.5-0.4,0-3.3,0.8-3.9c3.9-2.5,4.1-6.4,5.1-10.3
		c0.8-3.3,2.9-6.2,4.4-9.3c0.5-1.1,1.6-2.4,1.3-3.3c-2.7-9.7-1.2-19.2,1.5-28.5C264.2,20.1,267.5,9.2,276,1z M330.3,335.2
		c-0.7,3.9-1.6,9-2.4,14c-0.4,2.4-1.2,5-0.7,7.3c1.1,4.8,2.8,9.5,4.6,14.2c9,24.1,22.2,46,35.5,67.9c0.6,1,1.5,1.7,2.2,2.6
		C360.5,403.8,346.9,368.4,330.3,335.2z M324.3,437.9c0.6-0.5,1.1-1.1,1.7-1.6c-6.1-10.2-12.3-20.3-18.4-30.5
		c-0.4,0.2-0.8,0.4-1.3,0.6c-0.3,3.3,5,8.5-2.5,8.9c-0.4,4.3-0.7,8.2-1.1,12.7C309.5,431.2,316.9,434.5,324.3,437.9z M80.1,224.6
		c0.4-0.6,0.8-1.2,1.2-1.7c-4.9-3.3-9.7-6.6-14.6-9.8c-0.4,0.6-0.8,1.1-1.1,1.7C70.3,218,75.2,221.3,80.1,224.6z"/>
	<path class="st1" d="M276,1c-8.5,8.2-11.8,19.1-14.9,29.9c-2.6,9.3-4.2,18.8-1.5,28.5c0.3,0.9-0.8,2.2-1.3,3.3
		c-1.5,3.1-3.6,6-4.4,9.3c-1,3.9-1.2,7.8-5.1,10.3c-0.8,0.5-1.3,3.4-0.8,3.9c1.3,1.1,3.3,1.4,5.7,2.3c-0.3,10.6-5.4,19.3-15.8,25.8
		c3.4,2.7,6.6,5.1,10,7.7c-1.9,1.5-4.3,3-6.3,4.9c-1.8,1.7-5.6,2.8-2.4,6.6c0.5,0.5-1.2,3.3-2.3,4.6c-3,3.3-6.4,6.2-9.3,9.5
		c-1.5,1.6-2.5,3.7-3.7,5.6c2,0.9,4,1.7,5.3,2.3c-1.2,7.8-2.5,16.2-3.9,24.6c-0.2,1.1-0.3,2.3-0.9,3.3c-6.5,10.8-13,21.5-19.5,32.2
		c-1.1,1.8-2.2,3.6-3.7,5.9c2,0.7,3.5,1.2,5,1.8c-1,3.1-2.4,6.3-2.8,9.7c-0.5,3.2-1.8,6.7,2.2,9.4c1.4,0.9,1.2,4.2,1.6,6.5
		c1.6,8,2.5,16,0.2,24.1c-1,3.6,0,7.7-0.9,11.4c-1.3,5.6-3.1,11.1-5.1,16.4c-3.3,8.7-6.5,17.4-10.6,25.8c-2.6,5.3-6.7,9.8-10,14.8
		c-0.9,1.3-1.8,3.1-1.5,4.4c0.2,0.9,2.4,1.3,3.9,2.1c-3.3,6.4-5.1,13.2-3.9,21.1c0.9,6-1,12.5-1.7,19c-7.7-3.9-9.4-12.5-14.1-18.9
		c-5.1-6.9-2.4-15.8-8.5-23.3c-1.5,3.8-2.6,6.6-3.7,9.3c1.1-8.7-2.8-17-0.8-26c2.1-9.4-1.1-18.6-7-26.7c-1.1-1.6-1.6-3.9-1.6-5.9
		c0-4.1,0.4-8.3,0.7-12.4c0-0.6-0.2-1.5,0.1-1.8c5.2-5,3.2-11,2.8-16.9c-0.4-5.6-0.3-11.1-0.6-16.7c-0.4-6.5-3.1-11.8-9-15.2
		c-1.1-0.7-2-2.2-2.5-3.5c-3.4-8.3-8-15.5-14.6-21.7c-3-2.8-4.4-7.4-6.9-10.8c-5.7-7.7-12.1-14.7-22.4-16.2
		c-0.8-0.1-1.7-0.9-2.3-1.6c-9.2-10.1-20.7-15.1-34.3-16.2c-3.5-0.3-7-1.4-10.4-2.7c-13.9-5.3-26.4-3.3-37.6,6.5
		c-1.6,1.4-2.7,3.3-4,5C1,115,1,58,1,1C92.7,1,184.3,1,276,1z"/>
	<path class="st1" d="M1,174c6.4,0,12.9-0.2,19.3,0.2c3,0.1,5.9,1.3,8.8,2.5c-7,3.9-16,4.1-20.3,13.7c3.5-0.3,6.2-0.7,9-0.8
		c5.6-0.2,11.3-0.6,16.9-0.2c4.9,0.4,9.4,2,10.4,7.8c-4.2,1.3-8.6,2.4-12.8,4.2c-3,1.2-5.9,3.6-4.4,7.2c1.4,3.6,4.9,2.2,7.8,1.8
		c4.2-0.6,8.5-0.9,12.8-1.1c0.8,0,2,0.5,2.5,1.1c6.8,9.5,14.7,17.8,26.1,24.1c-3.9,0.5-6.6,0.5-9,1.3c-1.6,0.6-2.8,2.4-4.1,3.6
		c1.4,1,2.7,2.2,4.3,2.8c5.8,2.5,11.7,4.8,17.1,8.2c-4.6-0.9-9.2-2.3-13.9-2.6c-2.2-0.1-4.5,1.8-6.7,2.9c1.9,1.8,3.5,4,5.7,5.2
		c5.4,3,11.1,5.4,16.7,8.1c-0.1,0.6-0.3,1.1-0.4,1.7c-1.9,0.2-3.9,0.1-5.5,0.7c-1.8,0.7-3.4,2.2-5.1,3.4c1.7,1.1,3.2,2.5,5.1,3.1
		c5.6,1.9,11.3,3.5,16.9,5.3c0.6,0.2,1,0.8,1.5,1.2c-2,0.8-3.9,1.6-6.9,2.9c12.9,8,18.2,20.1,23,32.5c-3.7-7.7-14.2-11-14-21.5
		c0-3-2.4-3.9-4.9-1.4c-3.6,3.7-4.5,8.2-2.7,12.9c1.1,3.1,3.3,5.7,4.8,8.7c2.3,4.3,4.4,8.7,6.7,13.5c-6.4,0.4-6.1,0.5-4.3,5.3
		c2,5.4,3.6,11,4.6,16.7c0.7,4.3,4.6,8.5,1.1,13.4c-0.5,0.7,1,2.8,1.6,4.2c-3.1-0.2-6.1-0.4-9.1-0.5c-0.4,0.5-0.8,1.1-1.3,1.6
		c4.3,5.9,8.6,11.7,13.1,18c-6.1,0.8-5.1,4-2.7,7.8c1.1,1.8,1.9,3.8,2.9,5.8c1.6,3.1,3.7,5.5,3.5,9.9c-0.2,3.3,3.8,7,6.4,10.1
		c3,3.6,6.3,7,9.7,10.3c2.3,2.3,4.9,4.5,7.4,6.6c6.1,5.1,12.8,8.8,21,9.2c0.5,0,1.1,0.6,1.4,1.1c2.8,4.7,7.5,4.9,12.2,5.3
		c2.1,0.2,4.2,0.8,5.8,1.1c-1.5,2.6-4.2,6-3.7,6.6c1.9,2.1,4.8,3.3,8.4,5.4c-0.1,0.7-0.5,2.9-1,5c-0.6,2.4-2.2,5.2-1.5,7.1
		c0.5,1.4,4.1,1.7,6.4,2.3c0.8,0.2,1.6,0,2.5,0c1.4,4.3,8.7,8.6,14.2,8.9c12.6,0.8,25.1,1.6,37.6,3.1c6.4,0.8,12.6,3,18.7,5.1
		c6.6,2.2,13.2,4.5,19.5,7.5c7.3,3.4,14.3,7.6,21.7,11.7c2.1-4.1,5.6-5.2,10.4-1.6c0.4,0.3,2.7-0.9,3.4-1.9c0.7-0.9,0.4-2.5,0.5-4
		c1.7,1.1,3.1,2.1,5.9,4c-0.3-4.5-0.2-7.9-0.8-11.2c-0.8-4.2-2.2-8.2-3.3-12.3c-1.4-5.1-4.7-7.8-10.2-8.4c-0.8-0.1-1.8-0.1-2.4-0.6
		c-5.6-4.7-12.2-4.5-18.9-4.3c-13.4,0.3-25.4-4.5-36.8-10.9c-1-0.5-1.7-1.5-2.5-2.3c2.8-3.3,5.6-4.4,10.1-4.1
		c5.4,0.3,11-2.2,16.5-3.1c2.4-0.4,4.9-0.4,7.3-0.1c4.1,0.4,8.3,0.7,12.2,1.8c10,2.9,20,6.1,29.9,9.4c6.5,2.1,13.1,4.1,19.2,7.2
		c3.1,1.6,5.9,5,7.2,8.2c1.6,4,2,8.7,1.8,13.1c-0.4,8.9-1.6,17.9-2.1,26.8c-0.2,3.9,0.3,7.9,1.1,11.7c0.4,1.9,2.5,4.9,3.6,4.8
		c6.4-0.4,10.6,3.7,15.7,7c0.5-2,0.9-3.4,1.3-5.4c7.2,3,14.2,6,21.2,8.9c-130.2,0-260.5,0-391,0C1,423.3,1,298.7,1,174z"/>
	<path class="st1" d="M431,522c-0.5-2.4-1-4.8-1.5-7.2c-1.6-7.4-8.4-10.4-13-15.2c-2.5-2.7-6.3-4.2-8.9-6.8c-1.5-1.4-2.5-3.9-2.5-6
		c0-5.6,0.2-11.4,1.2-16.9c3.1-16.8-1.2-32.2-8-47.3c-10.6-23.6-18.8-47.9-21.6-73.8c-0.6-5.6-0.9-11.3-1.1-16.9
		c-0.6-24.1-1.2-48.2-1.5-72.4c-0.1-4.6,1.9-9.2,1.8-13.7c-0.1-8.4-1.2-16.8-1.5-25.2c-0.3-7.6-0.7-15.2-0.2-22.8
		c0.6-9.8-3.1-23-10.7-34.5c1.9-0.1,3.7-0.2,6.3-0.4c-2.6-4-5-7.2-6.8-10.7c-1.9-3.7-3.1-7.6-4-10c4.1-7.6,8.1-14.2,11.3-21.3
		c0.8-1.9-0.6-5.2-1.7-7.4c-3.1-6.4-7-12.4-9.8-18.9c-0.9-2.2,0.2-5.4,0.7-8.1c0.8-4.1,2.1-8,2.7-12.1c0.4-2.3,0.8-5.3-0.4-6.8
		c-4.5-6.2-3.8-13-3.7-19.8c0-1.2,0-2.3,0.2-3.5c1.3-6.2,2.5-12.4,4-18.5c2.4-9.5,1.9-18-6.4-24.7c25,0,50,0,75,0
		C431,174.7,431,348.3,431,522z"/>
	<path class="st1" d="M353,1c-6.2,5.6-13.2,10.5-18.5,16.9c-4.5,5.4-10.5,6.4-16.1,8.9c-2.4,1.1-5.5,0.9-8.3,1.1
		c-8.9,0.7-9.8-0.4-14.2-8.2C292.2,13.1,287.3,7.2,283,1C306.3,1,329.7,1,353,1z"/>
	<path class="st1" d="M393,548c-0.3-2.4-0.5-4.9-0.8-7.3c0.3-0.1,0.5-0.3,0.8-0.4c1.3,2.2,2.6,4.5,4.1,7.2c5.8-6,1.4-12.8,1.9-20.3
		c2.6,3.3,4.5,5.8,6.9,8.9c0.8-2.1,1.3-3.8,2.4-6.7c4.7,3.8,9,7.3,13.6,11c0.1-2.6,0.3-5.6,0.5-8.6c0.2-0.1,0.4-0.1,0.6-0.2
		c1,3.1,2,6.2,3,9.3c0.6,0.1,1.1,0.1,1.7,0.2c0.8-3.5,1.7-7,2.5-10.5c0.3-1.5,0.6-3.1,0.9-4.6c0,7.3,0,14.7,0,22
		C418.3,548,405.7,548,393,548z"/>
	<path class="st1" d="M330.3,335.2c16.6,33.2,30.3,68.6,39.2,106c-0.7-0.9-1.6-1.7-2.2-2.6c-13.3-21.9-26.5-43.8-35.5-67.9
		c-1.7-4.7-3.4-9.4-4.6-14.2c-0.5-2.3,0.3-4.9,0.7-7.3C328.7,344.2,329.6,339.2,330.3,335.2z"/>
	<path class="st1" d="M324.3,437.9c-7.4-3.4-14.7-6.7-21.6-9.9c0.4-4.5,0.7-8.4,1.1-12.7c7.5-0.3,2.3-5.6,2.5-8.9
		c0.4-0.2,0.8-0.4,1.3-0.6c6.1,10.2,12.3,20.3,18.4,30.5C325.4,436.8,324.8,437.4,324.3,437.9z"/>
	<path class="st1" d="M80.1,224.6c-4.9-3.3-9.7-6.6-14.6-9.9c0.4-0.6,0.8-1.1,1.1-1.7c4.9,3.3,9.7,6.6,14.6,9.8
		C80.8,223.5,80.4,224,80.1,224.6z"/>
</g>
</svg>
